<svg width="91" height="99" viewBox="0 0 91 99" fill="none" xmlns="http://www.w3.org/2000/svg">
<path d="M81.3538 32.9938L28.2188 2.52098C25.3436 0.860702 22.0802 -0.00904829 18.7601 7.09794e-05C15.44 0.00919025 12.1814 0.896853 9.31535 2.5729C6.44931 4.24895 4.07791 6.65367 2.44201 9.54281C0.806103 12.432 -0.0360172 15.7026 0.00118102 19.0225V80.1882C0.00118102 85.1774 1.98313 89.9623 5.51102 93.4902C9.03891 97.018 13.8238 99 18.8129 99C22.1157 98.9944 25.359 98.1219 28.2188 96.4698L81.3538 65.9969C84.2089 64.3445 86.5793 61.9704 88.2271 59.1127C89.875 56.255 90.7425 53.0142 90.7425 49.7154C90.7425 46.4166 89.875 43.1758 88.2271 40.3181C86.5793 37.4604 84.2089 35.0863 81.3538 33.4339V32.9938ZM75.8533 56.041L22.7183 86.9539C21.5274 87.6288 20.1818 87.9836 18.8129 87.9836C17.444 87.9836 16.0985 87.6288 14.9076 86.9539C13.72 86.2682 12.7339 85.282 12.0483 84.0944C11.3628 82.9067 11.002 81.5595 11.0022 80.1882V18.8025C11.002 17.4312 11.3628 16.084 12.0483 14.8964C12.7339 13.7087 13.72 12.7225 14.9076 12.0369C16.1034 11.3722 17.4449 11.0132 18.8129 10.9918C20.18 11.0198 21.5199 11.3784 22.7183 12.0369L75.8533 42.7297C77.0413 43.4151 78.0279 44.4012 78.7139 45.5888C79.3998 46.7765 79.761 48.1238 79.761 49.4954C79.761 50.8669 79.3998 52.2142 78.7139 53.4019C78.0279 54.5896 77.0413 55.5756 75.8533 56.261V56.041Z" fill="#F5F5F5"/>
</svg>
