<svg width="23" height="22" viewBox="0 0 23 22" fill="none" xmlns="http://www.w3.org/2000/svg">
<path d="M16.5 1.43C12.21 -0.99 6.93 -0.22 3.41 3.08V1.1C3.41 0.44 2.97 0 2.31 0C1.65 0 1.21 0.44 1.21 1.1V6.05C1.21 6.71 1.65 7.15 2.31 7.15H7.26C7.92 7.15 8.36 6.71 8.36 6.05C8.36 5.39 7.92 4.95 7.26 4.95H4.62C6.27 3.19 8.58 2.2 11 2.2C15.84 2.2 19.8 6.16 19.8 11C19.8 15.84 15.84 19.8 11 19.8C6.16 19.8 2.2 15.84 2.2 11C2.2 10.34 1.76 9.9 1.1 9.9C0.44 9.9 0 10.34 0 11C0 17.05 4.95 22 11 22C14.96 22 18.59 19.91 20.57 16.5C23.54 11.22 21.78 4.51 16.5 1.43ZM11 6.6C10.34 6.6 9.9 7.04 9.9 7.7V11C9.9 11.66 10.34 12.1 11 12.1H13.2C13.86 12.1 14.3 11.66 14.3 11C14.3 10.34 13.86 9.9 13.2 9.9H12.1V7.7C12.1 7.04 11.66 6.6 11 6.6Z" fill="#F5F5F5"/>
</svg>
